<mxfile host="app.diagrams.net" modified="2024-01-08T21:19:14.684Z" agent="Mozilla/5.0 (Windows NT 10.0; Win64; x64) AppleWebKit/537.36 (KHTML, like Gecko) Chrome/120.0.0.0 Safari/537.36 OPR/106.0.0.0" etag="ezQSgVyg_egpfcvIgpR9" version="22.1.17" type="github">
  <diagram id="AY7ozsb0nTxLQEQO-qp8" name="Page-2">
    <mxGraphModel dx="4120" dy="1750" grid="1" gridSize="10" guides="1" tooltips="1" connect="1" arrows="1" fold="1" page="1" pageScale="1" pageWidth="827" pageHeight="1169" math="0" shadow="0">
      <root>
        <mxCell id="0" />
        <mxCell id="1" parent="0" />
        <mxCell id="iNTnJNL07J0__oHAqCpz-1" value="(Asbtrait)&amp;nbsp;&lt;i&gt;Tamagotchi&lt;/i&gt;" style="swimlane;fontStyle=1;align=center;verticalAlign=top;childLayout=stackLayout;horizontal=1;startSize=26;horizontalStack=0;resizeParent=1;resizeParentMax=0;resizeLast=0;collapsible=1;marginBottom=0;whiteSpace=wrap;html=1;" parent="1" vertex="1">
          <mxGeometry x="290" y="90" width="180" height="134" as="geometry" />
        </mxCell>
        <mxCell id="iNTnJNL07J0__oHAqCpz-2" value="&lt;div&gt;-nom : String&lt;/div&gt;&lt;div&gt;-wallet : int&lt;/div&gt;&lt;div&gt;&lt;font color=&quot;#6600cc&quot;&gt;-panier : Panier &lt;/font&gt;&lt;br&gt;&lt;/div&gt;&lt;div&gt;-niveauDifficulté : int&lt;/div&gt;" style="text;strokeColor=none;fillColor=none;align=left;verticalAlign=top;spacingLeft=4;spacingRight=4;overflow=hidden;rotatable=0;points=[[0,0.5],[1,0.5]];portConstraint=eastwest;whiteSpace=wrap;html=1;" parent="iNTnJNL07J0__oHAqCpz-1" vertex="1">
          <mxGeometry y="26" width="180" height="74" as="geometry" />
        </mxCell>
        <mxCell id="iNTnJNL07J0__oHAqCpz-3" value="" style="line;strokeWidth=1;fillColor=none;align=left;verticalAlign=middle;spacingTop=-1;spacingLeft=3;spacingRight=3;rotatable=0;labelPosition=right;points=[];portConstraint=eastwest;strokeColor=inherit;" parent="iNTnJNL07J0__oHAqCpz-1" vertex="1">
          <mxGeometry y="100" width="180" height="8" as="geometry" />
        </mxCell>
        <mxCell id="iNTnJNL07J0__oHAqCpz-4" value="+ actionspecial(): void" style="text;strokeColor=none;fillColor=none;align=left;verticalAlign=top;spacingLeft=4;spacingRight=4;overflow=hidden;rotatable=0;points=[[0,0.5],[1,0.5]];portConstraint=eastwest;whiteSpace=wrap;html=1;" parent="iNTnJNL07J0__oHAqCpz-1" vertex="1">
          <mxGeometry y="108" width="180" height="26" as="geometry" />
        </mxCell>
        <mxCell id="iNTnJNL07J0__oHAqCpz-5" value="Dinosaure" style="swimlane;fontStyle=1;align=center;verticalAlign=top;childLayout=stackLayout;horizontal=1;startSize=26;horizontalStack=0;resizeParent=1;resizeParentMax=0;resizeLast=0;collapsible=1;marginBottom=0;whiteSpace=wrap;html=1;" parent="1" vertex="1">
          <mxGeometry x="425" y="962" width="160" height="86" as="geometry" />
        </mxCell>
        <mxCell id="iNTnJNL07J0__oHAqCpz-6" value="+ field: type" style="text;strokeColor=none;fillColor=none;align=left;verticalAlign=top;spacingLeft=4;spacingRight=4;overflow=hidden;rotatable=0;points=[[0,0.5],[1,0.5]];portConstraint=eastwest;whiteSpace=wrap;html=1;" parent="iNTnJNL07J0__oHAqCpz-5" vertex="1">
          <mxGeometry y="26" width="160" height="26" as="geometry" />
        </mxCell>
        <mxCell id="iNTnJNL07J0__oHAqCpz-7" value="" style="line;strokeWidth=1;fillColor=none;align=left;verticalAlign=middle;spacingTop=-1;spacingLeft=3;spacingRight=3;rotatable=0;labelPosition=right;points=[];portConstraint=eastwest;strokeColor=inherit;" parent="iNTnJNL07J0__oHAqCpz-5" vertex="1">
          <mxGeometry y="52" width="160" height="8" as="geometry" />
        </mxCell>
        <mxCell id="iNTnJNL07J0__oHAqCpz-8" value="+ rugir() : void" style="text;strokeColor=none;fillColor=none;align=left;verticalAlign=top;spacingLeft=4;spacingRight=4;overflow=hidden;rotatable=0;points=[[0,0.5],[1,0.5]];portConstraint=eastwest;whiteSpace=wrap;html=1;" parent="iNTnJNL07J0__oHAqCpz-5" vertex="1">
          <mxGeometry y="60" width="160" height="26" as="geometry" />
        </mxCell>
        <mxCell id="iNTnJNL07J0__oHAqCpz-9" value="Robot" style="swimlane;fontStyle=1;align=center;verticalAlign=top;childLayout=stackLayout;horizontal=1;startSize=26;horizontalStack=0;resizeParent=1;resizeParentMax=0;resizeLast=0;collapsible=1;marginBottom=0;whiteSpace=wrap;html=1;" parent="1" vertex="1">
          <mxGeometry x="440" y="432" width="200" height="420" as="geometry" />
        </mxCell>
        <mxCell id="iNTnJNL07J0__oHAqCpz-10" value="- int battery&lt;br&gt;- int&amp;nbsp;maintenance&lt;br&gt;- int tank&lt;br&gt;- int durability&lt;br&gt;- int happiness" style="text;strokeColor=none;fillColor=none;align=left;verticalAlign=top;spacingLeft=4;spacingRight=4;overflow=hidden;rotatable=0;points=[[0,0.5],[1,0.5]];portConstraint=eastwest;whiteSpace=wrap;html=1;" parent="iNTnJNL07J0__oHAqCpz-9" vertex="1">
          <mxGeometry y="26" width="200" height="84" as="geometry" />
        </mxCell>
        <mxCell id="iNTnJNL07J0__oHAqCpz-11" value="" style="line;strokeWidth=1;fillColor=none;align=left;verticalAlign=middle;spacingTop=-1;spacingLeft=3;spacingRight=3;rotatable=0;labelPosition=right;points=[];portConstraint=eastwest;strokeColor=inherit;" parent="iNTnJNL07J0__oHAqCpz-9" vertex="1">
          <mxGeometry y="110" width="200" height="8" as="geometry" />
        </mxCell>
        <mxCell id="iNTnJNL07J0__oHAqCpz-12" value="+getBattery() : int&lt;br&gt;+setBattery(int): void&lt;br&gt;+getMaintenance() : int&lt;br style=&quot;border-color: var(--border-color);&quot;&gt;+setMaintenance(int): void&lt;br&gt;+getTank() : int&lt;br style=&quot;border-color: var(--border-color);&quot;&gt;+setTank(int): void&lt;br&gt;+getDurability() : int&lt;br style=&quot;border-color: var(--border-color);&quot;&gt;+setDurability(int): void&lt;br&gt;&lt;div style=&quot;border-color: var(--border-color);&quot;&gt;+getHappiness() : int&lt;br style=&quot;border-color: var(--border-color);&quot;&gt;&lt;/div&gt;+setHappiness(int) : void&lt;br&gt;+ reload() : void&lt;br&gt;&lt;div&gt;+ updating() : void&lt;/div&gt;+ dance() : void&lt;br&gt;+ fillTank() : void&lt;br&gt;+ répair() : void&lt;br&gt;+ work() : void&lt;br&gt;+ buyOil(Oil) : void&lt;br&gt;+ buySuperExtraOil (SuperExtraOil) : void" style="text;strokeColor=none;fillColor=none;align=left;verticalAlign=top;spacingLeft=4;spacingRight=4;overflow=hidden;rotatable=0;points=[[0,0.5],[1,0.5]];portConstraint=eastwest;whiteSpace=wrap;html=1;" parent="iNTnJNL07J0__oHAqCpz-9" vertex="1">
          <mxGeometry y="118" width="200" height="302" as="geometry" />
        </mxCell>
        <mxCell id="iNTnJNL07J0__oHAqCpz-13" value="(Abstrait) Animal" style="swimlane;fontStyle=1;align=center;verticalAlign=top;childLayout=stackLayout;horizontal=1;startSize=26;horizontalStack=0;resizeParent=1;resizeParentMax=0;resizeLast=0;collapsible=1;marginBottom=0;whiteSpace=wrap;html=1;" parent="1" vertex="1">
          <mxGeometry x="91" y="432" width="230" height="420" as="geometry" />
        </mxCell>
        <mxCell id="iNTnJNL07J0__oHAqCpz-14" value="&lt;div&gt;&amp;nbsp;-life : int&lt;br&gt;&lt;/div&gt;&lt;div&gt;- foods : int&lt;/div&gt;&lt;div&gt;-hygiene : int&lt;/div&gt;&lt;div&gt;- sleep : int&lt;/div&gt;&lt;div&gt;-happiness : int&lt;br&gt;&lt;/div&gt;&lt;div&gt;&lt;br&gt;&lt;/div&gt;" style="text;strokeColor=none;fillColor=none;align=left;verticalAlign=top;spacingLeft=4;spacingRight=4;overflow=hidden;rotatable=0;points=[[0,0.5],[1,0.5]];portConstraint=eastwest;whiteSpace=wrap;html=1;" parent="iNTnJNL07J0__oHAqCpz-13" vertex="1">
          <mxGeometry y="26" width="230" height="80" as="geometry" />
        </mxCell>
        <mxCell id="iNTnJNL07J0__oHAqCpz-15" value="" style="line;strokeWidth=1;fillColor=none;align=left;verticalAlign=middle;spacingTop=-1;spacingLeft=3;spacingRight=3;rotatable=0;labelPosition=right;points=[];portConstraint=eastwest;strokeColor=inherit;" parent="iNTnJNL07J0__oHAqCpz-13" vertex="1">
          <mxGeometry y="106" width="230" height="8" as="geometry" />
        </mxCell>
        <mxCell id="iNTnJNL07J0__oHAqCpz-16" value="&lt;div&gt;+getLife() : int&lt;br&gt;&lt;/div&gt;&lt;div&gt;+setLife(int) : void&lt;/div&gt;&lt;div&gt;&lt;div&gt;+getFoods() : int&lt;br&gt;&lt;/div&gt;+setFoods(int) : void&lt;/div&gt;&lt;div&gt;&lt;div&gt;+getHygiene : int&lt;br&gt;&lt;/div&gt;+setHygiene(int) : void&lt;/div&gt;&lt;div&gt;&lt;div&gt;+getSleep() : int&lt;br&gt;&lt;/div&gt;+setSleep(int) : void&lt;/div&gt;&lt;div&gt;&lt;div&gt;+getHappiness() : int&lt;br&gt;&lt;/div&gt;+setHappiness(int) : void&lt;/div&gt;&lt;div&gt;+check(): void&lt;br&gt;&lt;/div&gt;&lt;div&gt;+manger() : void&lt;/div&gt;&lt;div&gt;+dormir() : void&lt;/div&gt;&lt;div&gt;+laver() : void&lt;/div&gt;&lt;div&gt;+jouer() : void&lt;/div&gt;&lt;div&gt;+travailler() : void&lt;br&gt;&lt;/div&gt;&lt;div&gt;+buyApple(Apple):void&lt;/div&gt;&lt;div&gt;+buyGoldenApple(GoldenApple) : void&lt;/div&gt;&lt;div&gt;&lt;br&gt;&lt;/div&gt;" style="text;strokeColor=none;fillColor=none;align=left;verticalAlign=top;spacingLeft=4;spacingRight=4;overflow=hidden;rotatable=0;points=[[0,0.5],[1,0.5]];portConstraint=eastwest;whiteSpace=wrap;html=1;" parent="iNTnJNL07J0__oHAqCpz-13" vertex="1">
          <mxGeometry y="114" width="230" height="306" as="geometry" />
        </mxCell>
        <mxCell id="iNTnJNL07J0__oHAqCpz-18" value="" style="endArrow=none;html=1;edgeStyle=orthogonalEdgeStyle;rounded=0;exitX=0.5;exitY=1;exitDx=0;exitDy=0;entryX=0.5;entryY=0;entryDx=0;entryDy=0;" parent="1" source="iNTnJNL07J0__oHAqCpz-1" target="iNTnJNL07J0__oHAqCpz-9" edge="1">
          <mxGeometry relative="1" as="geometry">
            <mxPoint x="411" y="480" as="sourcePoint" />
            <mxPoint x="571" y="480" as="targetPoint" />
            <Array as="points">
              <mxPoint x="380" y="330" />
              <mxPoint x="540" y="330" />
            </Array>
          </mxGeometry>
        </mxCell>
        <mxCell id="iNTnJNL07J0__oHAqCpz-19" value="parent" style="edgeLabel;resizable=0;html=1;align=left;verticalAlign=bottom;" parent="iNTnJNL07J0__oHAqCpz-18" connectable="0" vertex="1">
          <mxGeometry x="-1" relative="1" as="geometry">
            <mxPoint x="-22" y="24" as="offset" />
          </mxGeometry>
        </mxCell>
        <mxCell id="iNTnJNL07J0__oHAqCpz-20" value="child" style="edgeLabel;resizable=0;html=1;align=right;verticalAlign=bottom;" parent="iNTnJNL07J0__oHAqCpz-18" connectable="0" vertex="1">
          <mxGeometry x="1" relative="1" as="geometry" />
        </mxCell>
        <mxCell id="iNTnJNL07J0__oHAqCpz-22" value="" style="endArrow=none;html=1;edgeStyle=orthogonalEdgeStyle;rounded=0;entryX=0.5;entryY=0;entryDx=0;entryDy=0;" parent="1" target="iNTnJNL07J0__oHAqCpz-13" edge="1">
          <mxGeometry relative="1" as="geometry">
            <mxPoint x="380" y="230" as="sourcePoint" />
            <mxPoint x="530.5" y="464" as="targetPoint" />
            <Array as="points">
              <mxPoint x="380" y="330" />
              <mxPoint x="206" y="330" />
            </Array>
          </mxGeometry>
        </mxCell>
        <mxCell id="iNTnJNL07J0__oHAqCpz-24" value="child" style="edgeLabel;resizable=0;html=1;align=right;verticalAlign=bottom;" parent="iNTnJNL07J0__oHAqCpz-22" connectable="0" vertex="1">
          <mxGeometry x="1" relative="1" as="geometry" />
        </mxCell>
        <mxCell id="CEjjNatdGJ-OlO1aCKFO-7" value="Food" style="swimlane;fontStyle=1;align=center;verticalAlign=top;childLayout=stackLayout;horizontal=1;startSize=26;horizontalStack=0;resizeParent=1;resizeParentMax=0;resizeLast=0;collapsible=1;marginBottom=0;whiteSpace=wrap;html=1;" parent="1" vertex="1">
          <mxGeometry x="930" y="90" width="170" height="160" as="geometry" />
        </mxCell>
        <mxCell id="CEjjNatdGJ-OlO1aCKFO-8" value="&lt;div&gt;- name : String&lt;/div&gt;&lt;div&gt;- point : int&lt;/div&gt;&lt;div&gt;- price : int&lt;/div&gt;&lt;div&gt;&lt;br&gt;&lt;/div&gt;" style="text;strokeColor=none;fillColor=none;align=left;verticalAlign=top;spacingLeft=4;spacingRight=4;overflow=hidden;rotatable=0;points=[[0,0.5],[1,0.5]];portConstraint=eastwest;whiteSpace=wrap;html=1;" parent="CEjjNatdGJ-OlO1aCKFO-7" vertex="1">
          <mxGeometry y="26" width="170" height="64" as="geometry" />
        </mxCell>
        <mxCell id="CEjjNatdGJ-OlO1aCKFO-9" value="" style="line;strokeWidth=1;fillColor=none;align=left;verticalAlign=middle;spacingTop=-1;spacingLeft=3;spacingRight=3;rotatable=0;labelPosition=right;points=[];portConstraint=eastwest;strokeColor=inherit;" parent="CEjjNatdGJ-OlO1aCKFO-7" vertex="1">
          <mxGeometry y="90" width="170" height="8" as="geometry" />
        </mxCell>
        <mxCell id="CEjjNatdGJ-OlO1aCKFO-10" value="+getName(): String&lt;br&gt;+getPoint() : int&lt;br&gt;+getPrice : int" style="text;strokeColor=none;fillColor=none;align=left;verticalAlign=top;spacingLeft=4;spacingRight=4;overflow=hidden;rotatable=0;points=[[0,0.5],[1,0.5]];portConstraint=eastwest;whiteSpace=wrap;html=1;" parent="CEjjNatdGJ-OlO1aCKFO-7" vertex="1">
          <mxGeometry y="98" width="170" height="62" as="geometry" />
        </mxCell>
        <mxCell id="ASStj21WZhXskgtz9LRV-4" value="Use" style="endArrow=open;endSize=12;dashed=1;html=1;rounded=0;exitX=1.009;exitY=0.237;exitDx=0;exitDy=0;entryX=0;entryY=0.5;entryDx=0;entryDy=0;exitPerimeter=0;fillColor=#e1d5e7;strokeColor=#9673a6;strokeWidth=2;" parent="1" source="iNTnJNL07J0__oHAqCpz-2" target="efiOF5lhqJqWYbXf3eXv-2" edge="1">
          <mxGeometry width="160" relative="1" as="geometry">
            <mxPoint x="561" y="171.5" as="sourcePoint" />
            <mxPoint x="721" y="171.5" as="targetPoint" />
          </mxGeometry>
        </mxCell>
        <mxCell id="sQ2lsA5SrDhZzwlBG9KV-1" value="Apple" style="swimlane;fontStyle=1;align=center;verticalAlign=top;childLayout=stackLayout;horizontal=1;startSize=25;horizontalStack=0;resizeParent=1;resizeParentMax=0;resizeLast=0;collapsible=1;marginBottom=0;whiteSpace=wrap;html=1;" parent="1" vertex="1">
          <mxGeometry x="660" y="375" width="130" height="80" as="geometry" />
        </mxCell>
        <mxCell id="U9jXz20Q9tP8qIRhCo3V-4" value="- int point&lt;br&gt;- int&amp;nbsp;prix" style="text;strokeColor=none;fillColor=none;align=left;verticalAlign=top;spacingLeft=4;spacingRight=4;overflow=hidden;rotatable=0;points=[[0,0.5],[1,0.5]];portConstraint=eastwest;whiteSpace=wrap;html=1;" parent="sQ2lsA5SrDhZzwlBG9KV-1" vertex="1">
          <mxGeometry y="25" width="130" height="55" as="geometry" />
        </mxCell>
        <mxCell id="sQ2lsA5SrDhZzwlBG9KV-5" value="Golden Apple" style="swimlane;fontStyle=1;align=center;verticalAlign=top;childLayout=stackLayout;horizontal=1;startSize=26;horizontalStack=0;resizeParent=1;resizeParentMax=0;resizeLast=0;collapsible=1;marginBottom=0;whiteSpace=wrap;html=1;" parent="1" vertex="1">
          <mxGeometry x="830" y="375" width="110" height="71" as="geometry" />
        </mxCell>
        <mxCell id="U9jXz20Q9tP8qIRhCo3V-11" value="- int point&lt;br&gt;- int&amp;nbsp;prix" style="text;strokeColor=none;fillColor=none;align=left;verticalAlign=top;spacingLeft=4;spacingRight=4;overflow=hidden;rotatable=0;points=[[0,0.5],[1,0.5]];portConstraint=eastwest;whiteSpace=wrap;html=1;" parent="sQ2lsA5SrDhZzwlBG9KV-5" vertex="1">
          <mxGeometry y="26" width="110" height="45" as="geometry" />
        </mxCell>
        <mxCell id="sQ2lsA5SrDhZzwlBG9KV-9" value="" style="endArrow=none;html=1;edgeStyle=orthogonalEdgeStyle;rounded=0;exitX=0.5;exitY=1;exitDx=0;exitDy=0;entryX=0.5;entryY=0;entryDx=0;entryDy=0;fontStyle=1" parent="1" source="CEjjNatdGJ-OlO1aCKFO-7" target="sQ2lsA5SrDhZzwlBG9KV-1" edge="1">
          <mxGeometry relative="1" as="geometry">
            <mxPoint x="480" y="224" as="sourcePoint" />
            <mxPoint x="554" y="340" as="targetPoint" />
            <Array as="points">
              <mxPoint x="990" y="310" />
              <mxPoint x="725" y="310" />
            </Array>
          </mxGeometry>
        </mxCell>
        <mxCell id="sQ2lsA5SrDhZzwlBG9KV-10" value="parent" style="edgeLabel;resizable=0;html=1;align=left;verticalAlign=bottom;" parent="sQ2lsA5SrDhZzwlBG9KV-9" connectable="0" vertex="1">
          <mxGeometry x="-1" relative="1" as="geometry">
            <mxPoint x="-22" y="24" as="offset" />
          </mxGeometry>
        </mxCell>
        <mxCell id="sQ2lsA5SrDhZzwlBG9KV-11" value="child" style="edgeLabel;resizable=0;html=1;align=right;verticalAlign=bottom;" parent="sQ2lsA5SrDhZzwlBG9KV-9" connectable="0" vertex="1">
          <mxGeometry x="1" relative="1" as="geometry" />
        </mxCell>
        <mxCell id="sQ2lsA5SrDhZzwlBG9KV-12" value="" style="endArrow=none;html=1;edgeStyle=orthogonalEdgeStyle;rounded=0;exitX=0.5;exitY=1;exitDx=0;exitDy=0;entryX=0.5;entryY=0;entryDx=0;entryDy=0;" parent="1" source="CEjjNatdGJ-OlO1aCKFO-7" target="sQ2lsA5SrDhZzwlBG9KV-5" edge="1">
          <mxGeometry relative="1" as="geometry">
            <mxPoint x="630" y="510" as="sourcePoint" />
            <mxPoint x="700" y="640" as="targetPoint" />
            <Array as="points">
              <mxPoint x="990" y="310" />
              <mxPoint x="880" y="310" />
              <mxPoint x="880" y="375" />
            </Array>
          </mxGeometry>
        </mxCell>
        <mxCell id="sQ2lsA5SrDhZzwlBG9KV-13" value="parent" style="edgeLabel;resizable=0;html=1;align=left;verticalAlign=bottom;" parent="sQ2lsA5SrDhZzwlBG9KV-12" connectable="0" vertex="1">
          <mxGeometry x="-1" relative="1" as="geometry">
            <mxPoint x="-22" y="24" as="offset" />
          </mxGeometry>
        </mxCell>
        <mxCell id="sQ2lsA5SrDhZzwlBG9KV-14" value="child" style="edgeLabel;resizable=0;html=1;align=right;verticalAlign=bottom;" parent="sQ2lsA5SrDhZzwlBG9KV-12" connectable="0" vertex="1">
          <mxGeometry x="1" relative="1" as="geometry" />
        </mxCell>
        <mxCell id="qF5ad3Vx4evk81rrMBcD-9" value="Huile" style="swimlane;fontStyle=1;align=center;verticalAlign=top;childLayout=stackLayout;horizontal=1;startSize=26;horizontalStack=0;resizeParent=1;resizeParentMax=0;resizeLast=0;collapsible=1;marginBottom=0;whiteSpace=wrap;html=1;" parent="1" vertex="1">
          <mxGeometry x="1000" y="375" width="110" height="71" as="geometry" />
        </mxCell>
        <mxCell id="U9jXz20Q9tP8qIRhCo3V-13" value="- int point&lt;br&gt;- int&amp;nbsp;prix" style="text;strokeColor=none;fillColor=none;align=left;verticalAlign=top;spacingLeft=4;spacingRight=4;overflow=hidden;rotatable=0;points=[[0,0.5],[1,0.5]];portConstraint=eastwest;whiteSpace=wrap;html=1;" parent="qF5ad3Vx4evk81rrMBcD-9" vertex="1">
          <mxGeometry y="26" width="110" height="45" as="geometry" />
        </mxCell>
        <mxCell id="qF5ad3Vx4evk81rrMBcD-11" value="SuperExtraHuile" style="swimlane;fontStyle=1;align=center;verticalAlign=top;childLayout=stackLayout;horizontal=1;startSize=26;horizontalStack=0;resizeParent=1;resizeParentMax=0;resizeLast=0;collapsible=1;marginBottom=0;whiteSpace=wrap;html=1;" parent="1" vertex="1">
          <mxGeometry x="1170" y="375" width="110" height="71" as="geometry" />
        </mxCell>
        <mxCell id="U9jXz20Q9tP8qIRhCo3V-12" value="- int point&lt;br&gt;- int&amp;nbsp;prix" style="text;strokeColor=none;fillColor=none;align=left;verticalAlign=top;spacingLeft=4;spacingRight=4;overflow=hidden;rotatable=0;points=[[0,0.5],[1,0.5]];portConstraint=eastwest;whiteSpace=wrap;html=1;" parent="qF5ad3Vx4evk81rrMBcD-11" vertex="1">
          <mxGeometry y="26" width="110" height="45" as="geometry" />
        </mxCell>
        <mxCell id="qF5ad3Vx4evk81rrMBcD-19" value="" style="endArrow=none;html=1;rounded=0;entryX=0.5;entryY=0;entryDx=0;entryDy=0;" parent="1" target="qF5ad3Vx4evk81rrMBcD-9" edge="1">
          <mxGeometry width="50" height="50" relative="1" as="geometry">
            <mxPoint x="880" y="310" as="sourcePoint" />
            <mxPoint x="1050" y="380" as="targetPoint" />
            <Array as="points">
              <mxPoint x="1055" y="310" />
            </Array>
          </mxGeometry>
        </mxCell>
        <mxCell id="qF5ad3Vx4evk81rrMBcD-20" value="" style="endArrow=none;html=1;rounded=0;entryX=0.535;entryY=0.011;entryDx=0;entryDy=0;entryPerimeter=0;" parent="1" target="qF5ad3Vx4evk81rrMBcD-11" edge="1">
          <mxGeometry width="50" height="50" relative="1" as="geometry">
            <mxPoint x="1050" y="310" as="sourcePoint" />
            <mxPoint x="1240" y="370" as="targetPoint" />
            <Array as="points">
              <mxPoint x="1229" y="310" />
            </Array>
          </mxGeometry>
        </mxCell>
        <mxCell id="qF5ad3Vx4evk81rrMBcD-21" value="child" style="edgeLabel;resizable=0;html=1;align=right;verticalAlign=bottom;" parent="1" connectable="0" vertex="1">
          <mxGeometry x="1070" y="370" as="geometry" />
        </mxCell>
        <mxCell id="qF5ad3Vx4evk81rrMBcD-22" value="child" style="edgeLabel;resizable=0;html=1;align=right;verticalAlign=bottom;" parent="1" connectable="0" vertex="1">
          <mxGeometry x="1240" y="370" as="geometry" />
        </mxCell>
        <mxCell id="qF5ad3Vx4evk81rrMBcD-23" value="Chien" style="swimlane;fontStyle=1;align=center;verticalAlign=top;childLayout=stackLayout;horizontal=1;startSize=26;horizontalStack=0;resizeParent=1;resizeParentMax=0;resizeLast=0;collapsible=1;marginBottom=0;whiteSpace=wrap;html=1;" parent="1" vertex="1">
          <mxGeometry x="211" y="962" width="160" height="86" as="geometry" />
        </mxCell>
        <mxCell id="qF5ad3Vx4evk81rrMBcD-24" value="+ field: type" style="text;strokeColor=none;fillColor=none;align=left;verticalAlign=top;spacingLeft=4;spacingRight=4;overflow=hidden;rotatable=0;points=[[0,0.5],[1,0.5]];portConstraint=eastwest;whiteSpace=wrap;html=1;" parent="qF5ad3Vx4evk81rrMBcD-23" vertex="1">
          <mxGeometry y="26" width="160" height="26" as="geometry" />
        </mxCell>
        <mxCell id="qF5ad3Vx4evk81rrMBcD-25" value="" style="line;strokeWidth=1;fillColor=none;align=left;verticalAlign=middle;spacingTop=-1;spacingLeft=3;spacingRight=3;rotatable=0;labelPosition=right;points=[];portConstraint=eastwest;strokeColor=inherit;" parent="qF5ad3Vx4evk81rrMBcD-23" vertex="1">
          <mxGeometry y="52" width="160" height="8" as="geometry" />
        </mxCell>
        <mxCell id="qF5ad3Vx4evk81rrMBcD-26" value="+ Aboyer() : void" style="text;strokeColor=none;fillColor=none;align=left;verticalAlign=top;spacingLeft=4;spacingRight=4;overflow=hidden;rotatable=0;points=[[0,0.5],[1,0.5]];portConstraint=eastwest;whiteSpace=wrap;html=1;" parent="qF5ad3Vx4evk81rrMBcD-23" vertex="1">
          <mxGeometry y="60" width="160" height="26" as="geometry" />
        </mxCell>
        <mxCell id="qF5ad3Vx4evk81rrMBcD-27" value="Chat" style="swimlane;fontStyle=1;align=center;verticalAlign=top;childLayout=stackLayout;horizontal=1;startSize=26;horizontalStack=0;resizeParent=1;resizeParentMax=0;resizeLast=0;collapsible=1;marginBottom=0;whiteSpace=wrap;html=1;" parent="1" vertex="1">
          <mxGeometry x="21" y="962" width="160" height="86" as="geometry" />
        </mxCell>
        <mxCell id="qF5ad3Vx4evk81rrMBcD-28" value="+ field: type" style="text;strokeColor=none;fillColor=none;align=left;verticalAlign=top;spacingLeft=4;spacingRight=4;overflow=hidden;rotatable=0;points=[[0,0.5],[1,0.5]];portConstraint=eastwest;whiteSpace=wrap;html=1;" parent="qF5ad3Vx4evk81rrMBcD-27" vertex="1">
          <mxGeometry y="26" width="160" height="26" as="geometry" />
        </mxCell>
        <mxCell id="qF5ad3Vx4evk81rrMBcD-29" value="" style="line;strokeWidth=1;fillColor=none;align=left;verticalAlign=middle;spacingTop=-1;spacingLeft=3;spacingRight=3;rotatable=0;labelPosition=right;points=[];portConstraint=eastwest;strokeColor=inherit;" parent="qF5ad3Vx4evk81rrMBcD-27" vertex="1">
          <mxGeometry y="52" width="160" height="8" as="geometry" />
        </mxCell>
        <mxCell id="qF5ad3Vx4evk81rrMBcD-30" value="+ Miauler() : void" style="text;strokeColor=none;fillColor=none;align=left;verticalAlign=top;spacingLeft=4;spacingRight=4;overflow=hidden;rotatable=0;points=[[0,0.5],[1,0.5]];portConstraint=eastwest;whiteSpace=wrap;html=1;" parent="qF5ad3Vx4evk81rrMBcD-27" vertex="1">
          <mxGeometry y="60" width="160" height="26" as="geometry" />
        </mxCell>
        <mxCell id="hZsnkpwCr5hex5O26peP-8" value="Extends" style="endArrow=block;endSize=16;endFill=0;html=1;rounded=0;exitX=0.5;exitY=0;exitDx=0;exitDy=0;entryX=0.5;entryY=1;entryDx=0;entryDy=0;" parent="1" source="qF5ad3Vx4evk81rrMBcD-27" target="iNTnJNL07J0__oHAqCpz-13" edge="1">
          <mxGeometry width="160" relative="1" as="geometry">
            <mxPoint x="621" y="662" as="sourcePoint" />
            <mxPoint x="781" y="662" as="targetPoint" />
          </mxGeometry>
        </mxCell>
        <mxCell id="hZsnkpwCr5hex5O26peP-9" value="Extends" style="endArrow=block;endSize=16;endFill=0;html=1;rounded=0;exitX=0.5;exitY=0;exitDx=0;exitDy=0;entryX=0.5;entryY=1;entryDx=0;entryDy=0;" parent="1" source="qF5ad3Vx4evk81rrMBcD-23" target="iNTnJNL07J0__oHAqCpz-13" edge="1">
          <mxGeometry width="160" relative="1" as="geometry">
            <mxPoint x="425" y="892" as="sourcePoint" />
            <mxPoint x="310" y="622" as="targetPoint" />
          </mxGeometry>
        </mxCell>
        <mxCell id="hZsnkpwCr5hex5O26peP-10" value="Extends" style="endArrow=block;endSize=16;endFill=0;html=1;rounded=0;exitX=0.5;exitY=0;exitDx=0;exitDy=0;entryX=0.467;entryY=1.015;entryDx=0;entryDy=0;entryPerimeter=0;" parent="1" source="iNTnJNL07J0__oHAqCpz-5" target="iNTnJNL07J0__oHAqCpz-16" edge="1">
          <mxGeometry width="160" relative="1" as="geometry">
            <mxPoint x="466" y="892" as="sourcePoint" />
            <mxPoint x="341" y="612" as="targetPoint" />
          </mxGeometry>
        </mxCell>
        <mxCell id="efiOF5lhqJqWYbXf3eXv-1" value="Panier" style="swimlane;fontStyle=1;align=center;verticalAlign=top;childLayout=stackLayout;horizontal=1;startSize=26;horizontalStack=0;resizeParent=1;resizeParentMax=0;resizeLast=0;collapsible=1;marginBottom=0;whiteSpace=wrap;html=1;fillColor=#e1d5e7;strokeColor=#9673a6;" parent="1" vertex="1">
          <mxGeometry x="610" y="90" width="210" height="132" as="geometry" />
        </mxCell>
        <mxCell id="efiOF5lhqJqWYbXf3eXv-2" value="- basket : ArrayList(Food)" style="text;strokeColor=#9673a6;fillColor=#e1d5e7;align=left;verticalAlign=top;spacingLeft=4;spacingRight=4;overflow=hidden;rotatable=0;points=[[0,0.5],[1,0.5]];portConstraint=eastwest;whiteSpace=wrap;html=1;" parent="efiOF5lhqJqWYbXf3eXv-1" vertex="1">
          <mxGeometry y="26" width="210" height="34" as="geometry" />
        </mxCell>
        <mxCell id="efiOF5lhqJqWYbXf3eXv-4" value="+addBasket(Food) : void&lt;br&gt;+getBesket(): ArrayList(Food)&lt;br&gt;+removeFoodFromBasket(int): void&lt;br&gt;+getNumberOfFood(String): int" style="text;strokeColor=#9673a6;fillColor=#e1d5e7;align=left;verticalAlign=top;spacingLeft=4;spacingRight=4;overflow=hidden;rotatable=0;points=[[0,0.5],[1,0.5]];portConstraint=eastwest;whiteSpace=wrap;html=1;" parent="efiOF5lhqJqWYbXf3eXv-1" vertex="1">
          <mxGeometry y="60" width="210" height="72" as="geometry" />
        </mxCell>
        <mxCell id="UWGZW6PHFwanZghe9vZY-1" value="Use" style="endArrow=open;endSize=12;dashed=1;html=1;rounded=0;exitX=1;exitY=0.5;exitDx=0;exitDy=0;entryX=-0.012;entryY=0.297;entryDx=0;entryDy=0;entryPerimeter=0;fillColor=#e1d5e7;strokeColor=#9673a6;strokeWidth=2;" parent="1" source="efiOF5lhqJqWYbXf3eXv-2" target="CEjjNatdGJ-OlO1aCKFO-8" edge="1">
          <mxGeometry width="160" relative="1" as="geometry">
            <mxPoint x="890" y="81" as="sourcePoint" />
            <mxPoint x="967" y="80" as="targetPoint" />
          </mxGeometry>
        </mxCell>
        <mxCell id="gVBOd6YT_mPpsYdYfZiQ-1" value="&lt;font style=&quot;font-size: 48px;&quot;&gt;Annexe 5 : Diagramme de classes&lt;/font&gt;" style="rounded=0;whiteSpace=wrap;html=1;" vertex="1" parent="1">
          <mxGeometry x="460" y="10" width="790" height="60" as="geometry" />
        </mxCell>
      </root>
    </mxGraphModel>
  </diagram>
</mxfile>
